<svg width="100%" height="100%" viewBox="0 0 50 50" xmlns="http://www.w3.org/2000/svg" style="position: absolute; top: 0px; left: 0px; z-index: 0;"><rect height="50" fill="#6a4a4a" width="50"></rect><ellipse cx="25" cy="25" rx="12" ry="6" fill="#d0b080" stroke="#a08050" stroke-width="0.5" transform="rotate(0 25 25)"></ellipse><ellipse cx="25" cy="25" rx="12" ry="6" fill="#d0b080" stroke="#a08050" stroke-width="0.5" transform="rotate(45 25 25)"></ellipse><ellipse cx="25" cy="25" rx="12" ry="6" fill="#d0b080" stroke="#a08050" stroke-width="0.5" transform="rotate(90 25 25)"></ellipse><ellipse cx="25" cy="25" rx="12" ry="6" fill="#d0b080" stroke="#a08050" stroke-width="0.5" transform="rotate(135 25 25)"></ellipse><ellipse cx="25" cy="25" rx="12" ry="6" fill="#d0b080" stroke="#a08050" stroke-width="0.5" transform="rotate(180 25 25)"></ellipse><ellipse cx="25" cy="25" rx="12" ry="6" fill="#d0b080" stroke="#a08050" stroke-width="0.5" transform="rotate(225 25 25)"></ellipse><ellipse cx="25" cy="25" rx="12" ry="6" fill="#d0b080" stroke="#a08050" stroke-width="0.5" transform="rotate(270 25 25)"></ellipse><ellipse cx="25" cy="25" rx="12" ry="6" fill="#d0b080" stroke="#a08050" stroke-width="0.5" transform="rotate(315 25 25)"></ellipse><circle cx="25" cy="25" r="5" fill="#f0e0b0" stroke="#a08050" stroke-width="1"></circle></svg>